<svg width="760.551" height="581.89" xmlns="http://www.w3.org/2000/svg">

 <g>
  <title>background</title>
  <rect fill="none" id="canvas_background" height="583.89" width="762.551" y="-1" x="-1"/>
 </g>
 <g>
  <title>Layer 1</title>
  <polyline id="svg_1" points="711.9600219726562,415.96002197265625 714.239990234375,414.280029296875 716.4000244140625,412.239990234375 " stroke-miterlimit="10" stroke-linejoin="round" stroke-linecap="round" stroke-width="0.48" stroke="#000000" fill="none"/>
  <polygon id="svg_2" points="759.3839721679688,393.281005859375 758.7839965820312,388.0010070800781 757.583984375,382.84100341796875 754.583984375,371.55999755859375 717.9600219726562,380.67999267578125 721.0800170898438,393.5199890136719 721.5599975585938,396.4000244140625 721.6799926757812,399.280029296875 721.3200073242188,402.15997314453125 720.5999755859375,404.91998291015625 719.52001953125,407.55999755859375 718.0800170898438,409.96002197265625 716.4000244140625,412.239990234375 714.239990234375,414.280029296875 711.9600219726562,415.96002197265625 709.4390258789062,417.280029296875 699.719970703125,421.47998046875 694.02099609375,423.99102783203125 672.1400146484375,423.99200439453125 672.1389770507812,213.0679931640625 628.10400390625,213.0679931640625 628.10400390625,32.44099426269531 563.47998046875,32.44000244140625 563.6019897460938,18.4010009765625 72.17498779296875,18.399002075195312 72.17498779296875,30.699005126953125 31.157989501953125,30.699005126953125 31.157989501953125,105.69200134277344 1.8220062255859375,105.69200134277344 1.8220062255859375,160.33499145507812 31.157989501953125,160.33499145507812 31.160003662109375,215.62600708007812 480.34600830078125,215.62600708007812 480.34600830078125,381.8710021972656 458.6400146484375,381.8710021972656 458.6400146484375,373.0830078125 37.579986572265625,373.0830078125 37.579986572265625,381.8710021972656 28.46099853515625,381.8710021972656 28.46099853515625,566.3200073242188 37.20001220703125,566.3200073242188 37.20001220703125,575.2009887695312 459.5999755859375,575.2030029296875 459.5999755859375,566.3200073242188 521.4000244140625,566.3200073242188 521.4000244140625,579.176025390625 587.1840209960938,579.176025390625 587.1840209960938,564.760009765625 601.2000122070312,564.760009765625 601.2000122070312,523 587.1840209960938,523 587.1840209960938,515.8909912109375 600.5089721679688,510.281005859375 628.9439697265625,510.281005859375 628.9439697265625,495.05902099609375 723.6240234375,453.4000244140625 728.3040161132812,451.1209716796875 732.864013671875,448.239990234375 737.1840209960938,445.1209716796875 741.1439819335938,441.52099609375 744.7440185546875,437.6810302734375 748.10400390625,433.47998046875 750.9840087890625,429.041015625 753.5040283203125,424.36102294921875 755.6640014648438,419.44097900390625 757.343994140625,414.4000244140625 758.5440063476562,409.239990234375 759.2639770507812,403.96002197265625 759.5040283203125,398.6810302734375 " fill="#A7A9AB"/>
  <rect id="svg_3" height="16.261" width="19.242" fill="#FFFFFF" y="30.699" x="31.158"/>
  <polygon id="svg_4" points="164.760009765625,131.9199981689453 157.55999755859375,131.9199981689453 157.56100463867188,18.399002075195312 72.17498779296875,18.399002075195312 72.17498779296875,30.699005126953125 50.399993896484375,30.699005126953125 50.399993896484375,46.96000671386719 31.157989501953125,46.96000671386719 31.157989501953125,129.63999938964844 114.13299560546875,129.63999938964844 114.13299560546875,114.55400085449219 117.55499267578125,114.55400085449219 117.55499267578125,215.62600708007812 157.55999755859375,215.62600708007812 157.55999755859375,152.44000244140625 164.760009765625,152.44000244140625 " fill="#626366"/>
  <g id="svg_5">
   <rect id="svg_6" height="19.859" width="1.68" y="132.101" x="177.317"/>
   <rect id="svg_7" height="19.859" width="1.68" y="132.101" x="173.915"/>
   <rect id="svg_8" height="19.859" width="1.68" y="132.101" x="170.514"/>
   <rect id="svg_9" height="19.859" width="1.68" y="132.101" x="167.112"/>
   <rect id="svg_10" height="19.859" width="1.68" y="132.101" x="180.717"/>
   <rect id="svg_11" height="19.859" width="1.68" y="132.101" x="184.12"/>
   <rect id="svg_12" height="19.859" width="1.68" y="132.101" x="187.52"/>
   <rect id="svg_13" height="19.859" width="1.68" y="132.101" x="190.922"/>
   <rect id="svg_14" height="19.859" width="1.68" y="132.101" x="194.323"/>
  </g>
  <polygon id="svg_15" points="209.27999877929688,159.51998901367188 209.27999877929688,155.20001220703125 160.20001220703125,155.20001220703125 160.20001220703125,193.239990234375 193.6199951171875,193.239990234375 193.6199951171875,170.67999267578125 196.07998657226562,170.67999267578125 196.07998657226562,193.239990234375 221.04000854492188,193.239990234375 221.04000854492188,159.51998901367188 " fill="#626366"/>
  <rect id="svg_16" height="10.86" width="13.08" fill="#FFFFFF" y="131.8" x="214.8"/>
  <rect id="svg_17" height="12.6" width="16.38" fill="#FFFFFF" y="145.06" x="211.5"/>
  <rect id="svg_18" height="39.84" width="40.2" fill="#626366" y="132.4" x="32.04"/>
  <polygon id="svg_19" points="74.51998901367188,132.39999389648438 74.51998901367188,174.51998901367188 32.040008544921875,174.51998901367188 32.040008544921875,213.760009765625 114.55599975585938,213.760009765625 114.55599975585938,132.39999389648438 " fill="#626366"/>
  <polygon id="svg_20" points="160.20001220703125,18.399002075195312 160.20001220703125,129.39999389648438 227.8800048828125,129.39999389648438 227.8800048828125,159.51998901367188 222.83999633789062,159.51998901367188 222.83999633789062,170.63699340820312 241.79998779296875,170.63699340820312 241.79998779296875,18.399002075195312 " fill="#626366"/>
  <polygon id="svg_21" points="244.92001342773438,18.399002075195312 244.92001342773438,172.88400268554688 222.83999633789062,172.88400268554688 222.83999633789062,195.51998901367188 160.20001220703125,195.51998901367188 160.20001220703125,216.04000854492188 412.67999267578125,216.04000854492188 412.67999267578125,18.399002075195312 " fill="#626366"/>
  <rect id="svg_22" height="17.4" width="45.48" fill="#626366" y="131.8" x="539.88"/>
  <g id="svg_23">
   <rect id="svg_24" height="19.859" width="1.68" y="153.101" x="498.219"/>
   <rect id="svg_25" height="19.859" width="1.68" y="153.101" x="494.816"/>
   <rect id="svg_26" height="19.859" width="1.68" y="153.101" x="491.416"/>
   <rect id="svg_27" height="19.859" width="1.68" y="153.101" x="488.014"/>
   <rect id="svg_28" height="19.859" width="1.68" y="153.101" x="501.619"/>
   <rect id="svg_29" height="19.859" width="1.68" y="153.101" x="505.021"/>
   <rect id="svg_30" height="19.859" width="1.68" y="153.101" x="508.422"/>
   <rect id="svg_31" height="19.859" width="1.68" y="153.101" x="511.824"/>
   <rect id="svg_32" height="19.859" width="1.68" y="153.101" x="515.225"/>
   <rect id="svg_33" height="19.859" width="1.68" y="153.101" x="518.627"/>
   <rect id="svg_34" height="19.859" width="1.68" y="153.101" x="522.027"/>
  </g>
  <rect id="svg_35" height="211.052" width="39.619" fill="#626366" y="213.068" x="632.52"/>
  <rect id="svg_36" height="16.739" width="33.6" fill="#626366" y="448.84" x="417"/>
  <polygon id="svg_37" points="496.55999755859375,441.11297607421875 496.55999755859375,426.344970703125 468.719970703125,426.344970703125 468.719970703125,454.06500244140625 484.08001708984375,454.06500244140625 484.08001708984375,441.11297607421875 " fill="#626366"/>
  <g id="svg_38">
   <rect id="svg_39" height="19.859" width="1.68" y="426.344" x="427.205"/>
   <rect id="svg_40" height="19.859" width="1.68" y="426.344" x="423.803"/>
   <rect id="svg_41" height="19.859" width="1.68" y="426.344" x="420.402"/>
   <rect id="svg_42" height="19.859" width="1.68" y="426.344" x="417"/>
   <rect id="svg_43" height="19.859" width="1.68" y="426.344" x="430.605"/>
   <rect id="svg_44" height="19.859" width="1.68" y="426.344" x="434.008"/>
   <rect id="svg_45" height="19.859" width="1.68" y="426.344" x="437.408"/>
   <rect id="svg_46" height="19.859" width="1.68" y="426.344" x="440.811"/>
   <rect id="svg_47" height="19.859" width="1.68" y="426.344" x="444.211"/>
   <rect id="svg_48" height="19.859" width="1.68" y="426.344" x="447.613"/>
   <rect id="svg_49" height="19.859" width="1.68" y="426.344" x="451.014"/>
  </g>
  <path id="svg_50" d="m628.104,450.76l0,-65.52l-43.224,0l0,-7.32l43.224,0l0,-345.479l-64.344,0l0,-14.042l-146.76,0l0,193.771l62.04,0l0,-28.89l3.72,0l0,50.01l20.04,0l0,3.51l-20.04,0l0,141.119l21.24,0l0,6.001l-129.48,0l0,41.88l-4.439,0l0,-42.24l-81.12,0l0,43.02l-4.92,0l0,-42.18l-123.721,0l0,42.18l-3.84,0l0,-44.709l-128.019,0l0,184.449l128.019,0l0,-45.84l3.84,0l0,43.68l123.72,0l0,-43.2l4.92,0l0,43.08l81.12,0l0,-43.08l4.439,0l0,43.8l212.664,0l0,-48.869l13.325,-5.61l28.436,0l0,-15.222l15.455,-6.8l-16.295,-37.499zm-401.664,17.88l-53.04,0l0,-3.961l53.04,0l0,3.961zm0,-42.06l-53.04,0l0,-3.359l53.04,0l0,3.359zm258.72,-251.01l0,-46.89l102.12,0l0,46.89l-102.12,0zm77.279,209.67l-32.496,0l0,94.26l-0.264,0l0,5.101l-33.12,0l0,-16.56l-82.079,0l0,-43.92l110.04,0l0,-40.2l0,-6.001l37.92,0l0,7.32l-0.001,0z" fill="#626366"/>
  <path id="svg_51" d="m525.621,72.332c-0.251,-0.743 -0.957,-1.272 -1.788,-1.272l-13.859,0c-0.831,0 -1.523,0.529 -1.788,1.272l-2.621,7.547l0,10.079c0,0.693 0.567,1.26 1.261,1.26l1.26,0c0.691,0 1.26,-0.567 1.26,-1.26l0,-1.26l15.117,0l0,1.26c0,0.693 0.568,1.26 1.26,1.26l1.261,0c0.692,0 1.26,-0.567 1.26,-1.26l0,-10.079l-2.623,-7.547zm-15.647,12.587c-1.045,0 -1.889,-0.844 -1.889,-1.89s0.844,-1.89 1.889,-1.89c1.046,0 1.89,0.844 1.89,1.89s-0.844,1.89 -1.89,1.89zm13.859,0c-1.046,0 -1.89,-0.844 -1.89,-1.89s0.844,-1.89 1.89,-1.89c1.045,0 1.889,0.844 1.889,1.89s-0.844,1.89 -1.889,1.89zm-15.748,-6.3l1.889,-5.669l13.859,0l1.889,5.669l-17.637,0z" fill="#FFFFFF"/>
  <path id="svg_52" d="m565.479,261.415c-0.251,-0.743 -0.957,-1.272 -1.788,-1.272l-13.859,0c-0.831,0 -1.523,0.529 -1.788,1.272l-2.621,7.547l0,10.079c0,0.693 0.567,1.26 1.261,1.26l1.26,0c0.691,0 1.26,-0.567 1.26,-1.26l0,-1.26l15.117,0l0,1.26c0,0.693 0.568,1.26 1.26,1.26l1.261,0c0.692,0 1.26,-0.567 1.26,-1.26l0,-10.079l-2.623,-7.547zm-15.648,12.587c-1.045,0 -1.889,-0.844 -1.889,-1.89s0.844,-1.89 1.889,-1.89c1.046,0 1.89,0.844 1.89,1.89s-0.844,1.89 -1.89,1.89zm13.859,0c-1.046,0 -1.89,-0.844 -1.89,-1.89s0.844,-1.89 1.89,-1.89c1.045,0 1.889,0.844 1.889,1.89s-0.844,1.89 -1.889,1.89zm-15.748,-6.3l1.889,-5.669l13.859,0l1.889,5.669l-17.637,0z" fill="#FFFFFF"/>
  <path id="svg_53" d="m333.81,471.542c-0.251,-0.743 -0.957,-1.271 -1.788,-1.271l-13.859,0c-0.831,0 -1.523,0.528 -1.788,1.271l-2.621,7.547l0,10.08c0,0.692 0.567,1.26 1.261,1.26l1.26,0c0.691,0 1.26,-0.567 1.26,-1.26l0,-1.261l15.117,0l0,1.261c0,0.692 0.568,1.26 1.26,1.26l1.261,0c0.692,0 1.26,-0.567 1.26,-1.26l0,-10.08l-2.623,-7.547zm-15.648,12.586c-1.045,0 -1.889,-0.844 -1.889,-1.89s0.844,-1.891 1.889,-1.891c1.046,0 1.89,0.845 1.89,1.891s-0.844,1.89 -1.89,1.89zm13.859,0c-1.046,0 -1.89,-0.844 -1.89,-1.89s0.844,-1.891 1.89,-1.891c1.045,0 1.889,0.845 1.889,1.891s-0.844,1.89 -1.889,1.89zm-15.748,-6.299l1.889,-5.67l13.859,0l1.889,5.67l-17.637,0z" fill="#FFFFFF"/>
 </g>
</svg>