<svg width="603.6" height="551.9" xmlns="http://www.w3.org/2000/svg">
 <style type="text/css">.st0 {
            fill: none;
            stroke: #000000;
            stroke-width: 0.48;
            stroke-linecap: round;
            stroke-linejoin: round;
            stroke-miterlimit: 10;
        }

        .st1 {
            fill: #A7A9AB;
        }

        .st2 {
            fill: #626366;
        }

        .st3 {
            fill: #62ABF4;
        }

        .st4 {
            fill: #FFFFFF;
        }

        .st5 {
            fill: #33CC33;
        }

        #svg_15 {
            fill: #F9844A
        }

        #svg_82 {
            fill: #F94144
        }</style>

 <g>
  <title>background</title>
  <rect x="-1" y="-1" width="605.6" height="553.9" id="canvas_background" fill="none"/>
 </g>
 <g>
  <title>Layer 1</title>
  <path class="st0" d="m149.8,128.5l0,10.4" id="svg_1"/>
  <polygon class="st1" points="601.7000122070312,17.800003051757812 513.5,17.800003051757812 513.7000122070312,30.399993896484375 131.5,30.399993896484375 131.5,20.399993896484375 1.899993896484375,20.399993896484375 1.899993896484375,201 133.20001220703125,201 133.20001220703125,182.29998779296875 196,182.29998779296875 196,162.5 464.29998779296875,162.5 464.29998779296875,162.20001220703125 494,162.20001220703125 494,177.29998779296875 471,177.29998779296875 471,407.79998779296875 390,407.79998779296875 390,368.1000061035156 44.600006103515625,368.1000061035156 44.600006103515625,549.2999877929688 557.9000244140625,550.4000244140625 557.9000244140625,495.70001220703125 601.7000122070312,495.70001220703125 " id="svg_2"/>
  <g id="svg_3">
   <rect x="471.2" y="137.8" width="1.7" height="21.1" id="svg_4"/>
   <rect x="467.8" y="137.8" width="1.7" height="21.1" id="svg_5"/>
   <rect x="464.4" y="137.8" width="1.7" height="21.1" id="svg_6"/>
   <rect x="461" y="137.8" width="1.7" height="21.1" id="svg_7"/>
   <rect x="474.6" y="137.8" width="1.7" height="21.1" id="svg_8"/>
   <rect x="478" y="137.8" width="1.7" height="21.1" id="svg_9"/>
   <rect x="481.4" y="137.8" width="1.7" height="21.1" id="svg_10"/>
   <rect x="484.8" y="137.8" width="1.7" height="21.1" id="svg_11"/>
   <rect x="488.2" y="137.8" width="1.7" height="21.1" id="svg_12"/>
   <rect x="491.6" y="137.8" width="1.7" height="21.1" id="svg_13"/>
   <rect x="495" y="137.8" width="1.7" height="21.1" id="svg_14"/>
  </g>
  <polygon class="st2" points="129.70001220703125,20.399993896484375 47.79998779296875,20.399993896484375 47.79998779296875,100.80000305175781 118.79998779296875,100.80000305175781 118.79998779296875,96.60000610351562 129.70001220703125,96.60000610351562 " id="svg_15"/>
  <rect x="133.4" y="62.6" class="st2" width="53" height="27.2" id="svg_16"/>
  <rect x="188.7" y="62.6" class="st2" width="25.8" height="27.2" id="svg_17"/>
  <rect x="216.7" y="62.6" class="st2" width="39.1" height="27.2" id="svg_18"/>
  <rect x="258.1" y="62.6" class="st2" width="27.8" height="27.2" id="svg_19"/>
  <rect x="288.2" y="62.6" class="st2" width="25.3" height="27.2" id="svg_20"/>
  <rect x="315.7" y="62.6" class="st2" width="27.2" height="27.2" id="svg_21"/>
  <rect x="345.2" y="62.6" class="st2" width="25.3" height="27.2" id="svg_22"/>
  <rect x="372.7" y="62.6" class="st2" width="14.2" height="27.2" id="svg_23"/>
  <rect x="389.3" y="62.6" class="st2" width="42.1" height="27.2" id="svg_24"/>
  <rect x="433.8" y="62.6" class="st2" width="25.8" height="27.2" id="svg_25"/>
  <rect x="461.9" y="62.6" class="st2" width="25.2" height="27.2" id="svg_26"/>
  <rect x="489.5" y="62.6" class="st2" width="26.6" height="27.2" id="svg_27"/>
  <rect x="518.5" y="17.2" class="st2" width="38.6" height="29.8" id="svg_28"/>
  <rect x="518.4" y="49.8" class="st2" width="25.6" height="16.7" id="svg_29"/>
  <rect x="559" y="17.8" class="st2" width="42.7" height="41" id="svg_30"/>
  <rect x="559" y="60.9" class="st2" width="42.7" height="27.1" id="svg_31"/>
  <rect x="518.4" y="69.1" class="st3" width="12" height="18.7" id="svg_32"/>
  <rect x="531.6" y="68.7" class="st3" width="12.4" height="21" id="svg_33"/>
  <rect x="568.7" y="90.3" class="st2" width="33" height="25.3" id="svg_34"/>
  <rect x="568.9" y="116.9" class="st2" width="32.8" height="19.8" id="svg_35"/>
  <rect x="568.9" y="138" class="st2" width="32.8" height="19.8" id="svg_36"/>
  <rect x="568.9" y="159.1" class="st2" width="32.8" height="19.8" id="svg_37"/>
  <rect x="568.9" y="180.1" class="st2" width="32.8" height="19.8" id="svg_38"/>
  <rect x="568.9" y="201.2" class="st2" width="32.8" height="19.8" id="svg_39"/>
  <rect x="568.9" y="222.3" class="st2" width="32.8" height="19.8" id="svg_40"/>
  <rect x="568.9" y="243.3" class="st2" width="32.8" height="19.8" id="svg_41"/>
  <rect x="568.9" y="264.4" class="st2" width="32.8" height="19.8" id="svg_42"/>
  <rect x="568.9" y="285.5" class="st2" width="32.8" height="19.8" id="svg_43"/>
  <rect x="568.9" y="306.6" class="st2" width="32.8" height="19.8" id="svg_44"/>
  <rect x="568.9" y="327.6" class="st2" width="32.8" height="19.8" id="svg_45"/>
  <rect x="470.9" y="180.1" class="st2" width="44.8" height="19.8" id="svg_46"/>
  <rect x="470.9" y="201.2" class="st2" width="44.8" height="19.8" id="svg_47"/>
  <rect x="470.9" y="222.3" class="st2" width="44.8" height="19.8" id="svg_48"/>
  <rect x="470.9" y="243.3" class="st2" width="44.8" height="19.8" id="svg_49"/>
  <rect x="470.9" y="264.4" class="st2" width="44.8" height="19.8" id="svg_50"/>
  <rect x="470.9" y="285.5" class="st2" width="44.8" height="19.8" id="svg_51"/>
  <rect x="470.9" y="306.6" class="st2" width="44.8" height="19.8" id="svg_52"/>
  <rect x="470.9" y="327.6" class="st2" width="44.8" height="19.8" id="svg_53"/>
  <polygon class="st2" points="601.7000122070312,348.70001220703125 568.9000244140625,348.70001220703125 568.9000244140625,365.6000061035156 586.7000122070312,365.6000061035156 586.7000122070312,367.70001220703125 601.7000122070312,367.70001220703125 " id="svg_54"/>
  <rect x="545.5" y="90.3" class="st2" width="22.3" height="88.6" id="svg_55"/>
  <rect x="527.2" y="193.3" class="st2" width="31.9" height="45.7" id="svg_56"/>
  <rect x="539.9" y="240" class="st2" width="19.3" height="11" id="svg_57"/>
  <rect x="527.2" y="252.1" class="st2" width="31.9" height="44.5" id="svg_58"/>
  <rect x="527.2" y="297.8" class="st2" width="31.9" height="49.6" id="svg_59"/>
  <rect x="502.9" y="371.4" class="st3" width="32.2" height="16.8" id="svg_60"/>
  <rect x="520.6" y="390.2" class="st3" width="14.9" height="18.4" id="svg_61"/>
  <rect x="502.9" y="398.8" class="st3" width="16.3" height="10.4" id="svg_62"/>
  <rect x="537.4" y="370.2" class="st2" width="20" height="10.4" id="svg_63"/>
  <rect x="537.4" y="381.8" class="st2" width="20" height="26.8" id="svg_64"/>
  <rect x="559.1" y="370.3" class="st2" width="21.1" height="38.5" id="svg_65"/>
  <polygon class="st2" points="600.0999755859375,370.29998779296875 587.2000122070312,370.29998779296875 587.2000122070312,389 580.9000244140625,389 580.9000244140625,408.79998779296875 600.2000122070312,408.79998779296875 " id="svg_66"/>
  <rect x="460.9" y="118.3" class="st3" width="48.8" height="17" id="svg_67"/>
  <rect x="347.5" y="100.4" class="st2" width="35.8" height="19.2" id="svg_68"/>
  <rect x="235.3" y="100.4" class="st2" width="52.8" height="19.2" id="svg_69"/>
  <rect x="220.5" y="100.4" class="st2" width="13.1" height="19.2" id="svg_70"/>
  <rect x="384.7" y="100.2" class="st2" width="42.8" height="19.4" id="svg_71"/>
  <rect x="446.4" y="130.8" class="st2" width="12.1" height="31.6" id="svg_72"/>
  <rect x="418.2" y="130.8" class="st2" width="26.6" height="31.6" id="svg_73"/>
  <rect x="390" y="130.8" class="st2" width="26.6" height="31.6" id="svg_74"/>
  <rect x="359.3" y="130.8" class="st2" width="26.6" height="31.6" id="svg_75"/>
  <rect x="330.8" y="130.8" class="st2" width="26.6" height="31.6" id="svg_76"/>
  <rect x="302.4" y="130.8" class="st2" width="26.6" height="31.6" id="svg_77"/>
  <rect x="274" y="130.8" class="st2" width="26.6" height="31.6" id="svg_78"/>
  <rect x="245.5" y="130.8" class="st2" width="26.6" height="31.6" id="svg_79"/>
  <rect x="217.1" y="130.8" class="st2" width="26.6" height="31.6" id="svg_80"/>
  <polygon class="st2" points="69.60000610351562,125.60000610351562 69.60000610351562,118.80000305175781 47.899993896484375,118.80000305175781 47.899993896484375,157.79998779296875 87.79998779296875,157.89999389648438 87.79998779296875,125.60000610351562 " id="svg_81"/>
  <polygon class="st2" points="119,125.60000610351562 119,120.60000610351562 101,120.60000610351562 101,125.60000610351562 90.5,125.60000610351562 90.5,201.10000610351562 129.79998779296875,201 129.79998779296875,125.60000610351562 " id="svg_82"/>
  <g id="svg_83">
   <rect x="146.2" y="117.9" width="1.7" height="21.1" id="svg_84"/>
   <rect x="142.8" y="117.9" width="1.7" height="21.1" id="svg_85"/>
   <rect x="139.4" y="117.9" width="1.7" height="21.1" id="svg_86"/>
   <rect x="135.9" y="117.9" width="1.7" height="21.1" id="svg_87"/>
   <rect x="149.6" y="117.9" width="1.7" height="21.1" id="svg_88"/>
   <rect x="153" y="117.9" width="1.7" height="21.1" id="svg_89"/>
   <rect x="156.4" y="117.9" width="1.7" height="21.1" id="svg_90"/>
   <rect x="159.8" y="117.9" width="1.7" height="21.1" id="svg_91"/>
   <rect x="163.2" y="117.9" width="1.7" height="21.1" id="svg_92"/>
   <rect x="166.6" y="117.9" width="1.7" height="21.1" id="svg_93"/>
  </g>
  <rect x="132.4" y="141.4" class="st3" width="35.9" height="16.2" id="svg_94"/>
  <rect x="132.4" y="160.4" class="st3" width="36.1" height="18.4" id="svg_95"/>
  <rect x="170.1" y="167.2" class="st3" width="10.7" height="11.5" id="svg_96"/>
  <rect x="182.4" y="167.2" class="st3" width="10.8" height="11.3" id="svg_97"/>
  <g id="svg_98">
   <rect x="400.6" y="411.9" width="1.7" height="21.1" id="svg_99"/>
   <rect x="397.2" y="411.9" width="1.7" height="21.1" id="svg_100"/>
   <rect x="393.8" y="411.9" width="1.7" height="21.1" id="svg_101"/>
   <rect x="390.4" y="411.9" width="1.7" height="21.1" id="svg_102"/>
   <rect x="404" y="411.9" width="1.7" height="21.1" id="svg_103"/>
   <rect x="407.4" y="411.9" width="1.7" height="21.1" id="svg_104"/>
   <rect x="410.8" y="411.9" width="1.7" height="21.1" id="svg_105"/>
   <rect x="414.2" y="411.9" width="1.7" height="21.1" id="svg_106"/>
   <rect x="417.6" y="411.9" width="1.7" height="21.1" id="svg_107"/>
   <rect x="421" y="411.9" width="1.7" height="21.1" id="svg_108"/>
   <rect x="424.4" y="411.9" width="1.7" height="21.1" id="svg_109"/>
  </g>
  <rect x="390.1" y="435.6" class="st3" width="49.8" height="16.7" id="svg_110"/>
  <rect x="390.5" y="454.3" class="st3" width="31.8" height="15.7" id="svg_111"/>
  <rect x="440.6" y="454.2" class="st3" width="11.6" height="15.8" id="svg_112"/>
  <rect x="453.7" y="454.2" class="st2" width="16.9" height="15.8" id="svg_113"/>
  <rect x="442" y="440.5" class="st2" width="27.6" height="11.9" id="svg_114"/>
  <rect x="442" y="427.8" class="st2" width="15.1" height="11.6" id="svg_115"/>
  <rect x="489.5" y="479.7" class="st2" width="10.8" height="27.8" id="svg_116"/>
  <rect x="475.9" y="479.7" class="st2" width="11.6" height="27.8" id="svg_117"/>
  <rect x="461.5" y="479.7" class="st2" width="12.5" height="27.8" id="svg_118"/>
  <rect x="447.1" y="479.7" class="st2" width="12.5" height="27.8" id="svg_119"/>
  <rect x="432.7" y="479.7" class="st2" width="12.5" height="27.8" id="svg_120"/>
  <rect x="404.4" y="479.7" class="st2" width="26.4" height="27.8" id="svg_121"/>
  <rect x="375.9" y="479.7" class="st2" width="26.6" height="27.8" id="svg_122"/>
  <rect x="346.6" y="479.7" class="st2" width="27.4" height="27.8" id="svg_123"/>
  <rect x="317.1" y="479.7" class="st2" width="26.8" height="27.8" id="svg_124"/>
  <rect x="288.4" y="479.7" class="st2" width="26.8" height="27.8" id="svg_125"/>
  <rect x="259.7" y="479.7" class="st2" width="26.8" height="27.8" id="svg_126"/>
  <rect x="231.1" y="479.7" class="st2" width="26.8" height="27.8" id="svg_127"/>
  <rect x="202.4" y="479.7" class="st2" width="26.8" height="27.8" id="svg_128"/>
  <rect x="173.7" y="479.7" class="st2" width="26.8" height="27.8" id="svg_129"/>
  <rect x="215.4" y="412.4" class="st2" width="14.8" height="27.8" id="svg_130"/>
  <rect x="232" y="412.4" class="st2" width="26.6" height="27.8" id="svg_131"/>
  <rect x="260.4" y="412.4" class="st2" width="26.3" height="27.8" id="svg_132"/>
  <rect x="288.5" y="412.4" class="st2" width="26.6" height="27.8" id="svg_133"/>
  <rect x="316.9" y="412.4" class="st2" width="26.6" height="27.8" id="svg_134"/>
  <rect x="346.6" y="412.4" class="st2" width="26.6" height="27.8" id="svg_135"/>
  <rect x="375.2" y="412.4" class="st2" width="12.6" height="27.8" id="svg_136"/>
  <rect x="220" y="450" class="st2" width="34.6" height="20" id="svg_137"/>
  <rect x="256.9" y="450" class="st2" width="45" height="20" id="svg_138"/>
  <rect x="304.3" y="450" class="st2" width="37" height="20" id="svg_139"/>
  <g id="svg_140">
   <rect x="155" y="412.2" width="1.7" height="21.1" id="svg_141"/>
   <rect x="151.6" y="412.2" width="1.7" height="21.1" id="svg_142"/>
   <rect x="148.2" y="412.2" width="1.7" height="21.1" id="svg_143"/>
   <rect x="144.8" y="412.2" width="1.7" height="21.1" id="svg_144"/>
   <rect x="158.4" y="412.2" width="1.7" height="21.1" id="svg_145"/>
   <rect x="161.8" y="412.2" width="1.7" height="21.1" id="svg_146"/>
   <rect x="165.2" y="412.2" width="1.7" height="21.1" id="svg_147"/>
   <rect x="168.6" y="412.2" width="1.7" height="21.1" id="svg_148"/>
   <rect x="172" y="412.2" width="1.7" height="21.1" id="svg_149"/>
   <rect x="175.4" y="412.2" width="1.7" height="21.1" id="svg_150"/>
   <rect x="178.8" y="412.2" width="1.7" height="21.1" id="svg_151"/>
  </g>
  <rect x="152.8" y="436" class="st3" width="27.6" height="15.6" id="svg_152"/>
  <rect x="182.9" y="453.9" class="st3" width="14.8" height="12.7" id="svg_153"/>
  <rect x="146.5" y="453.9" class="st3" width="18.5" height="16.1" id="svg_154"/>
  <rect x="130.3" y="453.9" class="st3" width="13.7" height="16.1" id="svg_155"/>
  <rect x="182.6" y="424.5" class="st2" width="15.1" height="28.1" id="svg_156"/>
  <rect x="130.3" y="479.2" class="st2" width="40.8" height="30.7" id="svg_157"/>
  <rect x="47.6" y="521.4" class="st2" width="12.1" height="27.9" id="svg_158"/>
  <rect x="61.1" y="521.4" class="st2" width="12.8" height="27.9" id="svg_159"/>
  <rect x="75.3" y="521.4" class="st2" width="12.8" height="27.9" id="svg_160"/>
  <rect x="89.4" y="521.4" class="st2" width="12.8" height="27.9" id="svg_161"/>
  <rect x="103.5" y="521.4" class="st2" width="12.8" height="27.9" id="svg_162"/>
  <rect x="117.7" y="521.4" class="st2" width="12.8" height="27.9" id="svg_163"/>
  <rect x="131.8" y="521.4" class="st2" width="12.8" height="27.9" id="svg_164"/>
  <rect x="146" y="521.4" class="st2" width="12.8" height="27.9" id="svg_165"/>
  <rect x="160.1" y="521.4" class="st2" width="12.8" height="27.9" id="svg_166"/>
  <rect x="47.6" y="368.1" class="st2" width="12.1" height="29.8" id="svg_167"/>
  <rect x="61.1" y="368.1" class="st2" width="12.8" height="29.8" id="svg_168"/>
  <rect x="75.3" y="368.1" class="st2" width="12.8" height="29.8" id="svg_169"/>
  <rect x="89.4" y="368.1" class="st2" width="12.8" height="29.8" id="svg_170"/>
  <rect x="103.5" y="368.1" class="st2" width="12.8" height="29.8" id="svg_171"/>
  <rect x="117.7" y="368.1" class="st2" width="12.8" height="29.8" id="svg_172"/>
  <rect x="131.8" y="368.1" class="st2" width="12.8" height="29.8" id="svg_173"/>
  <rect x="146" y="368.1" class="st2" width="12.8" height="29.8" id="svg_174"/>
  <rect x="160.1" y="368.1" class="st2" width="12.8" height="29.8" id="svg_175"/>
  <rect x="174.3" y="368.1" class="st2" width="12.8" height="29.8" id="svg_176"/>
  <rect x="188.4" y="368.1" class="st2" width="27.5" height="29.8" id="svg_177"/>
  <rect x="90.4" y="410.2" class="st2" width="26.6" height="20.9" id="svg_178"/>
  <rect x="90.4" y="432.8" class="st2" width="26.6" height="18.3" id="svg_179"/>
  <rect x="90.4" y="452.8" class="st2" width="26.6" height="14.4" id="svg_180"/>
  <rect x="90.4" y="468.8" class="st2" width="26.6" height="18.3" id="svg_181"/>
  <rect x="90.4" y="488.8" class="st2" width="26.6" height="21.2" id="svg_182"/>
  <rect x="526.3" y="240" class="st4" width="12.4" height="11.1" id="svg_183"/>
  <g id="Livello_2_1_">
   <g id="Livello_2-2">
    <polygon class="st5" points="48.5,158 48.5,20.5 2.5,20.5 2.5,201.10000610351562 42.5,201.10000610351562 48.5,201.10000610351562 88.39999389648438,201.10000610351562 88.39999389648438,158 " id="svg_184"/>
    <rect x="132.1" y="30.6" class="st5" width="382.2" height="32.2" id="svg_185"/>
    <polygon class="st5" points="602.2999877929688,408.79998779296875 501,408.79998779296875 501,462.0999755859375 501,495.79998779296875 501,507.9000244140625 173.70001220703125,507.9000244140625 173.70001220703125,550.5 501,550.5 533.4000244140625,550.5 558.5,550.5 558.5,495.79998779296875 602.2999877929688,495.79998779296875 " id="svg_186"/>
    <rect x="216.5" y="368.3" class="st5" width="174.1" height="44.3" id="svg_187"/>
    <rect x="45.2" y="398" class="st5" width="45.8" height="123.5" id="svg_188"/>
   </g>
  </g>
  <text fill="#000000" stroke="null" stroke-width="0" stroke-opacity="null" fill-opacity="null" x="93.299999" y="144.8" id="svg_189" font-size="15" font-family="Helvetica, Arial, sans-serif" text-anchor="start" xml:space="preserve">C4.1</text>
  <text fill="#000000" stroke="null" stroke-width="0" stroke-opacity="null" fill-opacity="null" x="69.299999" y="59.8" id="svg_191" font-size="20" font-family="Helvetica, Arial, sans-serif" text-anchor="start" xml:space="preserve">L4.2</text>
 </g>
</svg>