<svg width="732.551" height="567.89" xmlns="http://www.w3.org/2000/svg">
 <g>
  <title>background</title>
  <rect x="-1" y="-1" width="734.551" height="569.89" id="canvas_background" fill="none"/>
 </g>

 <g>
  <title>Layer 1</title>
  <polygon fill="#A7A9AB" points="47.279998779296875,19.399002075195312 47.279998779296875,35.96000671386719 5.5780029296875,35.96000671386719 5.579010009765625,216.625 451.08001708984375,216.625 451.08001708984375,383.718994140625 2.8800048828125,383.718994140625 2.8800048828125,564.8610229492188 433.20001220703125,564.8619995117188 433.20001220703125,547.8800048828125 493.20001220703125,547.8800048828125 493.20001220703125,566 561.5999755859375,566 561.5999755859375,511.280029296875 603.3599853515625,511.280029296875 603.3599853515625,453.44000244140625 682.3200073242188,418.760009765625 685.0800170898438,417.32000732421875 687.47900390625,415.52001953125 689.6400146484375,413.47998046875 691.4390258789062,411.08099365234375 693,408.44000244140625 694.0800170898438,405.55999755859375 694.6799926757812,402.67999267578125 694.9199829101562,399.55999755859375 694.7999877929688,396.55999755859375 693.47900390625,391.2799987792969 691.0800170898438,381.55999755859375 729,372.55999755859375 650.52001953125,57.32000732421875 602.52001953125,57.32000732421875 602.52001953125,33.44000244140625 494.52099609375,33.438995361328125 494.52099609375,19.399993896484375 366,19.399993896484375 366.0009765625,34.03999328613281 321.5999755859375,34.03999328613281 321.65997314453125,19.399993896484375 " id="svg_1"/>
  <polygon fill="#626366" points="132.052001953125,35.95899963378906 5.5780029296875,35.96000671386719 5.5780029296875,113.96000671386719 116.39999389648438,113.95899963378906 116.39898681640625,108.91999816894531 132.052001953125,108.91999816894531 " id="svg_2"/>
  <polygon fill="#FFFFFF" points="132.052001953125,115.15899658203125 132.052001953125,49.199005126953125 215.16000366210938,49.160003662109375 215.16000366210938,115.15899658203125 " id="svg_3"/>
  <polygon fill="#626366" points="366.0009765625,34.03999328613281 321.5999755859375,34.03999328613281 321.65997314453125,19.399993896484375 259.67901611328125,19.399993896484375 259.67901611328125,34.160003662109375 236.27999877929688,34.160003662109375 236.15499877929688,113.96000671386719 365.875,113.96000671386719 " id="svg_4"/>
  <polyline fill="#626366" points="388.55999755859375,114.08000183105469 388.55999755859375,34.160003662109375 431.8800048828125,34.160003662109375 431.8800048828125,19.399993896484375 494.52099609375,19.399993896484375 494.52099609375,33.438995361328125 602.52001953125,33.44000244140625 602.52001953125,113.96000671386719 " id="svg_5"/>
  <rect x="557.4" y="127.814" fill="#62ABF4" width="43.199" height="16.386" id="svg_6"/>
  <rect x="557.4" y="115.377" fill="#626366" width="43.319" height="11.003" id="svg_7"/>
  <rect x="557.4" y="157.88" fill="#62ABF4" width="43.319" height="17.34" id="svg_8"/>
  <rect x="460.68" y="130.64" fill="#62ABF4" width="35.521" height="19.8" id="svg_9"/>
  <rect x="471.24" y="153.08" width="1.68" height="21.12" id="svg_10"/>
  <rect x="467.839" y="153.08" width="1.68" height="21.12" id="svg_11"/>
  <rect x="464.438" y="153.08" width="1.68" height="21.12" id="svg_12"/>
  <rect x="461.036" y="153.08" width="1.68" height="21.12" id="svg_13"/>
  <rect x="474.642" y="153.08" width="1.68" height="21.12" id="svg_14"/>
  <rect x="478.043" y="153.08" width="1.68" height="21.12" id="svg_15"/>
  <rect x="481.444" y="153.08" width="1.68" height="21.12" id="svg_16"/>
  <rect x="484.846" y="153.08" width="1.68" height="21.12" id="svg_17"/>
  <rect x="488.247" y="153.08" width="1.68" height="21.12" id="svg_18"/>
  <rect x="491.648" y="153.08" width="1.68" height="21.12" id="svg_19"/>
  <rect x="495.05" y="153.08" width="1.68" height="21.12" id="svg_20"/>
  <polygon fill="#626366" points="710.6710205078125,297.9360046386719 650.52001953125,56.32000732421875 604.218994140625,56.32000732421875 604.218994140625,174.16000366210938 614.280029296875,174.27999877929688 614.2789916992188,240.8900146484375 604,240.8900146484375 604,298 670.9199829101562,298 673.2000122070312,307.239990234375 " id="svg_21"/>
  <rect x="389.64" y="151.88" fill="#626366" width="18.96" height="44.04" id="svg_22"/>
  <rect x="410.939" y="151.88" fill="#626366" width="19.439" height="44.04" id="svg_23"/>
  <polygon fill="#626366" points="457.79998779296875,151.8909912109375 449.5009765625,152 432.719970703125,152 432.719970703125,195.92001342773438 451.79998779296875,195.92001342773438 451.79998779296875,176 457.79998779296875,176 " id="svg_24"/>
  <rect x="453.523" y="177.691" fill="#626366" width="18.797" height="18.109" id="svg_25"/>
  <polygon fill="#626366" points="370.67999267578125,141.67999267578125 370.67999267578125,137.9600067138672 316.32000732421875,137.9600067138672 316.32000732421875,141.67999267578125 302.69500732421875,141.67999267578125 302.69500732421875,176.89999389648438 299.33502197265625,176.89999389648438 299.33502197265625,141.67999267578125 286.08001708984375,141.67999267578125 286.08001708984375,137.9600067138672 231.239990234375,137.9600067138672 231.239990234375,141.67999267578125 215.51998901367188,141.67999267578125 215.51998901367188,195.92001342773438 384.84002685546875,195.92001342773438 384.84002685546875,141.67999267578125 " id="svg_26"/>
  <rect x="132.24" y="156.26" fill="#62ABF4" width="35.521" height="16.62" id="svg_27"/>
  <rect x="132.24" y="175.534" fill="#62ABF4" width="35.521" height="19.185" id="svg_28"/>
  <rect x="148.148" y="133.04" width="1.68" height="21.12" id="svg_29"/>
  <rect x="144.747" y="133.04" width="1.68" height="21.12" id="svg_30"/>
  <rect x="141.346" y="133.04" width="1.68" height="21.12" id="svg_31"/>
  <rect x="137.944" y="133.04" width="1.68" height="21.12" id="svg_32"/>
  <rect x="151.55" y="133.04" width="1.68" height="21.12" id="svg_33"/>
  <rect x="154.951" y="133.04" width="1.68" height="21.12" id="svg_34"/>
  <rect x="158.353" y="133.04" width="1.68" height="21.12" id="svg_35"/>
  <rect x="161.754" y="133.04" width="1.68" height="21.12" id="svg_36"/>
  <rect x="165.155" y="133.04" width="1.68" height="21.12" id="svg_37"/>
  <rect x="168.557" y="133.04" width="1.68" height="21.12" id="svg_38"/>
  <rect x="168.72" y="182.36" fill="#62ABF4" width="12.12" height="12.12" id="svg_39"/>
  <rect x="181.56" y="182.36" fill="#62ABF4" width="12.12" height="12.12" id="svg_40"/>
  <polygon fill="#626366" points="115.79998779296875,142.16000366210938 115.79998779296875,137.9600067138672 67.92001342773438,137.9600067138672 67.92001342773438,216.20001220703125 127.5,216.20001220703125 127.5,142.16000366210938 " id="svg_41"/>
  <polygon fill="#626366" points="53.441009521484375,142.16000366210938 53.441009521484375,137.9600067138672 5.56201171875,137.9600067138672 5.56201171875,216.20001220703125 65.14199829101562,216.20001220703125 65.14199829101562,142.16000366210938 " id="svg_42"/>
  <polygon fill="#626366" points="542.6409912109375,191.1199951171875 542.6409912109375,177.12399291992188 516.719970703125,177.12399291992188 516.719970703125,216.55999755859375 473.93902587890625,216.55999755859375 473.93902587890625,299 600.719970703125,299 600.719970703125,191.1199951171875 " id="svg_43"/>
  <rect x="473.52" y="301.52" fill="#626366" width="129.48" height="18.12" id="svg_44"/>
  <rect x="604.98" y="301.16" fill="#626366" width="18.239" height="19.08" id="svg_45"/>
  <polygon fill="#626366" points="678.344970703125,338.1210021972656 625.2000122070312,338.1210021972656 625.2000122070312,300.67999267578125 669.2730102539062,300.67999267578125 " id="svg_46"/>
  <path fill="none" stroke="#000000" stroke-width="0.48" stroke-linecap="round" stroke-linejoin="round" stroke-miterlimit="10" d="m691.08,381.56" id="svg_47"/>
  <polygon fill="#626366" points="625.2000122070312,425.1209716796875 625.2000122070312,405.79998779296875 667.6799926757812,405.79998779296875 667.6799926757812,383.6940002441406 691.6060180664062,383.6929931640625 693.47900390625,391.2799987792969 694.7999877929688,396.55999755859375 694.9199829101562,399.55999755859375 694.6799926757812,402.67999267578125 694.0800170898438,405.55999755859375 693,408.44000244140625 691.4390258789062,411.08099365234375 689.6400146484375,413.47998046875 687.47900390625,415.52001953125 685.0800170898438,417.32000732421875 682.3200073242188,418.760009765625 667.8400268554688,425.1209716796875 " id="svg_48"/>
  <polygon fill="#626366" points="684.47900390625,361.5660095214844 667.6799926757812,361.5660095214844 667.6799926757812,381.96600341796875 689.4000244140625,381.96600341796875 " id="svg_49"/>
  <polygon fill="#626366" points="684,359.8399963378906 667.6799926757812,359.8399963378906 667.6799926757812,353.1210021972656 682.3200073242188,353.1210021972656 " id="svg_50"/>
  <rect x="625.2" y="353.121" fill="#626366" width="40.8" height="51" id="svg_51"/>
  <rect x="516.72" y="321.92" fill="#626366" width="85.8" height="59.279" id="svg_52"/>
  <rect x="473.76" y="321.92" fill="#626366" width="40.32" height="19.02" id="svg_53"/>
  <rect x="473.52" y="343.73" fill="#626366" width="33.12" height="18.12" id="svg_54"/>
  <polygon fill="#626366" points="513.8400268554688,364.6400146484375 473.8800048828125,364.6400146484375 473.8800048828125,380.7200012207031 476.6409912109375,380.7200012207031 476.6409912109375,383.9599914550781 500.280029296875,383.9599914550781 500.280029296875,380.7200012207031 513.8400268554688,380.7200012207031 " id="svg_55"/>
  <rect x="502.92" y="386.24" fill="#626366" width="97.08" height="121.681" id="svg_56"/>
  <polygon fill="#626366" points="501.239990234375,524.719970703125 501.239990234375,548.5999755859375 496.43902587890625,548.5999755859375 496.43902587890625,565.760009765625 557.8800048828125,565.760009765625 557.8800048828125,524.719970703125 " id="svg_57"/>
  <polygon fill="#626366" points="474.84002685546875,424.760009765625 452.52001953125,424.760009765625 452.52001953125,383.9599914550781 470.4000244140625,383.9599914550781 470.4000244140625,387.3190002441406 474.84002685546875,387.32000732421875 " id="svg_58"/>
  <rect x="431.783" y="383.719" fill="#626366" width="18.992" height="31.079" id="svg_59"/>
  <rect x="410.196" y="383.719" fill="#626366" width="19.842" height="30.96" id="svg_60"/>
  <rect x="388.609" y="383.719" fill="#626366" width="19.842" height="40.2" id="svg_61"/>
  <polygon fill="#79afc5" points="346.56097412109375,383.718994140625 346.56097412109375,457.6400146484375 357.1199951171875,457.6400146484375 357.1199951171875,461 386.864013671875,461 386.864013671875,383.718994140625 " id="svg_62"/>
  <rect x="389.699" y="450.603" fill="#62ABF4" width="35.521" height="16.92" id="svg_63"/>
  <rect x="145.2" y="450.44" fill="#62ABF4" width="35.521" height="16.92" id="svg_64"/>
  <rect x="399.817" y="426.679" width="1.68" height="21.121" id="svg_65"/>
  <rect x="396.416" y="426.679" width="1.68" height="21.121" id="svg_66"/>
  <rect x="393.015" y="426.679" width="1.68" height="21.121" id="svg_67"/>
  <rect x="389.613" y="426.679" width="1.68" height="21.121" id="svg_68"/>
  <rect x="403.219" y="426.679" width="1.68" height="21.121" id="svg_69"/>
  <rect x="406.62" y="426.679" width="1.68" height="21.121" id="svg_70"/>
  <rect x="410.021" y="426.679" width="1.68" height="21.121" id="svg_71"/>
  <rect x="413.423" y="426.679" width="1.68" height="21.121" id="svg_72"/>
  <rect x="416.824" y="426.679" width="1.68" height="21.121" id="svg_73"/>
  <rect x="420.226" y="426.679" width="1.68" height="21.121" id="svg_74"/>
  <rect x="423.627" y="426.679" width="1.68" height="21.121" id="svg_75"/>
  <polygon fill="#f94144" points="357.61297607421875,488.88299560546875 357.61297607421875,492.86102294921875 346.093994140625,492.86102294921875 346.093994140625,564.8610229492188 408.7340087890625,564.8610229492188 408.7340087890625,488.88299560546875 " id="svg_76"/>
  <rect x="411.221" y="549.141" fill="#626366" width="19.32" height="15.72" id="svg_77"/>
  <polygon fill="#f9844a" points="332.1729736328125,493.10101318359375 332.1729736328125,486.1409912109375 314.13397216796875,486.1409912109375 314.13397216796875,489.02099609375 270.9739990234375,489.02099609375 270.9739990234375,493.10101318359375 259.573974609375,493.10101318359375 259.573974609375,564.8610229492188 342.375,564.8610229492188 342.375,493.10101318359375 " id="svg_78"/>
  <polygon fill="#626366" points="247.32998657226562,493.10101318359375 247.32998657226562,489.02099609375 228.010009765625,489.02099609375 228.010009765625,493.10101318359375 217.08999633789062,493.10101318359375 217.08999633789062,564.8610229492188 257.77099609375,564.8610229492188 257.77099609375,493.10101318359375 " id="svg_79"/>
  <polygon fill="#626366" points="204.85000610351562,493.10101318359375 204.85000610351562,489.02099609375 185.52899169921875,489.02099609375 185.52899169921875,493.10101318359375 174.6090087890625,493.10101318359375 174.6090087890625,564.8610229492188 215.29000854492188,564.8610229492188 215.29000854492188,493.10101318359375 " id="svg_80"/>
  <polygon fill="#f9c74f" points="162.36898803710938,493.10101318359375 162.36898803710938,489.02099609375 143.04800415039062,489.02099609375 143.04800415039062,493.10101318359375 132.12799072265625,493.10101318359375 132.12799072265625,564.8610229492188 172.80899047851562,564.8610229492188 172.80899047851562,493.10101318359375 " id="svg_81"/>
  <polygon fill="#90be6d" points="119.88699340820312,493.10101318359375 119.88699340820312,489.02099609375 100.56698608398438,489.02099609375 100.56698608398438,493.10101318359375 89.64700317382812,493.10101318359375 89.64700317382812,564.8610229492188 130.32699584960938,564.8610229492188 130.32699584960938,493.10101318359375 " id="svg_82"/>
  <polygon fill="#626366" points="77.39599609375,504.44097900390625 77.39599609375,500.36102294921875 58.07501220703125,500.36102294921875 58.07501220703125,504.44097900390625 47.154998779296875,504.44097900390625 47.154998779296875,564.8610229492188 87.83599853515625,564.8610229492188 87.83599853515625,504.44097900390625 " id="svg_83"/>
  <polygon fill="#626366" points="34.9119873046875,504.44097900390625 34.9119873046875,500.36102294921875 15.592010498046875,500.36102294921875 15.592010498046875,504.44097900390625 2.8800048828125,504.44097900390625 2.8800048828125,564.8610229492188 45.35198974609375,564.8610229492188 45.35198974609375,504.44097900390625 " id="svg_84"/>
  <rect x="154.804" y="426.799" width="1.68" height="21.121" id="svg_85"/>
  <rect x="151.403" y="426.799" width="1.68" height="21.121" id="svg_86"/>
  <rect x="148.001" y="426.799" width="1.68" height="21.121" id="svg_87"/>
  <rect x="144.6" y="426.799" width="1.68" height="21.121" id="svg_88"/>
  <rect x="158.206" y="426.799" width="1.68" height="21.121" id="svg_89"/>
  <rect x="161.607" y="426.799" width="1.68" height="21.121" id="svg_90"/>
  <rect x="165.008" y="426.799" width="1.68" height="21.121" id="svg_91"/>
  <rect x="168.41" y="426.799" width="1.68" height="21.121" id="svg_92"/>
  <rect x="171.811" y="426.799" width="1.68" height="21.121" id="svg_93"/>
  <rect x="175.212" y="426.799" width="1.68" height="21.121" id="svg_94"/>
  <rect x="178.614" y="426.799" width="1.68" height="21.121" id="svg_95"/>
  <rect x="215.4" y="386.24" fill="#62ABF4" width="20.1" height="39.601" id="svg_96"/>
  <rect x="238.08" y="386.24" fill="#62ABF4" width="19.375" height="39.721" id="svg_97"/>
  <polygon fill="#626366" points="342.96002197265625,383.718994140625 259.97998046875,383.718994140625 259.97998046875,457.8800048828125 270.84002685546875,457.8800048828125 270.84002685546875,461.47998046875 333.47998046875,461.47998046875 333.47998046875,457.8800048828125 342.96002197265625,457.8800048828125 " id="svg_98"/>
  <rect x="151.44" y="383.719" fill="#626366" width="44.16" height="40.681" id="svg_99"/>
  <polygon fill="#306d88" points="89.51998901367188,383.718994140625 89.51998901367188,452.41998291015625 100.07998657226562,452.41998291015625 100.07998657226562,456.67999267578125 130.2449951171875,456.67999267578125 130.2449951171875,383.718994140625 " id="svg_100"/>
  <polygon fill="#43aa8b" points="2.8800048828125,383.718994140625 2.8800048828125,448.15997314453125 16.67999267578125,448.15997314453125 16.67999267578125,456.67999267578125 76.32000732421875,456.67999267578125 76.32000732421875,452.1209716796875 86.760009765625,452.1209716796875 86.760009765625,383.718994140625 " id="svg_101"/>
  <text fill="#ffffff" stroke="null" stroke-width="0" stroke-opacity="null" x="359.275501" y="511.4" id="svg_102" font-size="15" font-family="Helvetica, Arial, sans-serif" text-anchor="start" xml:space="preserve">C2.1</text>
  <text fill="#ffffff" stroke="null" stroke-width="0" stroke-opacity="null" x="283.275501" y="511.4" id="svg_103" font-size="15" font-family="Helvetica, Arial, sans-serif" text-anchor="start" xml:space="preserve">L2.2</text>
  <text fill="#000000" stroke="null" stroke-width="0" stroke-opacity="null" fill-opacity="null" x="221.275501" y="511.4" id="svg_104" font-size="15" font-family="Helvetica, Arial, sans-serif" text-anchor="start" xml:space="preserve">C2.3</text>
  <text fill="#000000" stroke-width="0" stroke-opacity="null" fill-opacity="null" x="179.275501" y="511.4" id="svg_105" font-size="15" font-family="Helvetica, Arial, sans-serif" text-anchor="start" xml:space="preserve" stroke="null">C2.4</text>
  <text fill="#ffffff" stroke="null" stroke-width="0" stroke-opacity="null" x="137.275501" y="511.4" id="svg_106" font-size="15" font-family="Helvetica, Arial, sans-serif" text-anchor="start" xml:space="preserve">C2.5</text>
  <text fill="#ffffff" stroke="null" stroke-width="0" stroke-opacity="null" x="93.275501" y="511.4" id="svg_107" font-size="15" font-family="Helvetica, Arial, sans-serif" text-anchor="start" xml:space="preserve">C2.6</text>
  <text fill="#000000" stroke="null" stroke-width="0" stroke-opacity="null" fill-opacity="null" x="50.275501" y="521.4" id="svg_108" font-size="15" font-family="Helvetica, Arial, sans-serif" text-anchor="start" xml:space="preserve">C2.7</text>
  <text fill="#000000" stroke="null" stroke-width="0" stroke-opacity="null" fill-opacity="null" x="7.275501" y="521.4" id="svg_109" font-size="15" font-family="Helvetica, Arial, sans-serif" text-anchor="start" xml:space="preserve">C2.8</text>
  <text fill="#ffffff" stroke="null" stroke-width="0" stroke-opacity="null" x="27.275501" y="400.4" id="svg_110" font-size="15" font-family="Helvetica, Arial, sans-serif" text-anchor="start" xml:space="preserve">C2.9</text>
  <text fill="#ffffff" stroke="null" stroke-width="0" stroke-opacity="null" x="90.275501" y="400.4" id="svg_111" font-size="15" font-family="Helvetica, Arial, sans-serif" text-anchor="start" xml:space="preserve">C2.10</text>
  <text fill="#000000" stroke="null" stroke-width="0" stroke-opacity="null" x="281.275501" y="400.4" id="svg_112" font-size="15" font-family="Helvetica, Arial, sans-serif" text-anchor="start" xml:space="preserve">C2.12</text>
  <text fill="#ffffff" stroke="null" stroke-width="0" stroke-opacity="null" x="346.275501" y="401.4" id="svg_113" font-size="15" font-family="Helvetica, Arial, sans-serif" text-anchor="start" xml:space="preserve">C2.13</text>
  <text fill="#ffffff" stroke="null" stroke-width="0" stroke-opacity="null" x="153.275501" y="400.4" id="svg_114" font-size="15" font-family="Helvetica, Arial, sans-serif" text-anchor="start" xml:space="preserve">C2.11</text>
  <text fill="#000000" stroke="null" stroke-width="0" stroke-opacity="null" fill-opacity="null" x="531.275501" y="401.4" id="svg_115" font-size="15" font-family="Helvetica, Arial, sans-serif" text-anchor="start" xml:space="preserve">C3.4</text>
  <text fill="#000000" stroke="null" stroke-width="0" stroke-opacity="null" fill-opacity="null" x="503.275501" y="538.4" id="svg_116" font-size="10" font-family="Helvetica, Arial, sans-serif" text-anchor="start" xml:space="preserve">STUDENT</text>
  <text fill="#000000" stroke="null" stroke-width="0" stroke-opacity="null" fill-opacity="null" x="503.275501" y="549.4" id="svg_117" font-size="10" font-family="Helvetica, Arial, sans-serif" text-anchor="start" xml:space="preserve">S' SPACE</text>
  <text fill="#000000" stroke="null" stroke-width="0" stroke-opacity="null" fill-opacity="null" x="622.275501" y="262.4" id="svg_119" font-size="20" font-family="Helvetica, Arial, sans-serif" text-anchor="start" xml:space="preserve">Lab</text>
  <text fill="#000000" stroke="null" stroke-width="0" stroke-opacity="null" fill-opacity="null" x="500.275501" y="244.4" id="svg_120" font-size="15" font-family="Helvetica, Arial, sans-serif" text-anchor="start" xml:space="preserve">LIBRARY</text>
  <text fill="#000000" stroke="null" stroke-width="0" stroke-opacity="null" fill-opacity="null" x="9.275501" y="160.4" id="svg_122" font-size="15" font-family="Helvetica, Arial, sans-serif" text-anchor="start" xml:space="preserve">Lab2.17</text>
  <text fill="#000000" stroke="null" stroke-width="0" stroke-opacity="null" fill-opacity="null" x="47.275501" y="79.4" id="svg_123" font-size="20" font-family="Helvetica, Arial, sans-serif" text-anchor="start" xml:space="preserve">Lab</text>
  <text fill="#000000" stroke="null" stroke-width="0" stroke-opacity="null" fill-opacity="null" x="68.275501" y="160.4" id="svg_125" font-size="15" font-family="Helvetica, Arial, sans-serif" text-anchor="start" xml:space="preserve">Lab2.16</text>
  <text fill="#000000" stroke="null" stroke-width="0" stroke-opacity="null" fill-opacity="null" x="312.275501" y="160.4" id="svg_126" font-size="15" font-family="Helvetica, Arial, sans-serif" text-anchor="start" xml:space="preserve">Lab2.14</text>
  <text fill="#000000" stroke="null" stroke-width="0" stroke-opacity="null" fill-opacity="null" x="229.275501" y="160.4" id="svg_127" font-size="15" font-family="Helvetica, Arial, sans-serif" text-anchor="start" xml:space="preserve">Lab2.15</text>
 </g>
</svg>